# xmcd
#
# Track frame offsets: 
#        150
#        15085
#        29512
#        38951
#        51227
#        62329
#        72151
#        83182
#        95762
#        108896
#        119238
#        131094
#        142614
#        153955
#        163386
#        177107
#        187708
#        198933
#        210643
#        221687
#        233076
#        244114
#        257813
#        267327
#        280415
#
# Disc length: 3904 seconds
#
# Revision: 0
# Processed by: cddbd v1.5PL3 Copyright (c) Steve Scherf et al.
# Submitted via: ExactAudioCopy v0.90b4
#
DISCID=640f3e19
DTITLE=George Jones - Greatest Hits
DYEAR=1900
DGENRE=Country
TTITLE0=He Stopped Loving Her Today
TTITLE1=If Drinking Don`t Kill Me
TTITLE2=Love Bug
TTITLE3=Take Me
TTITLE4=Say It`s Not You
TTITLE5=I´m A People
TTITLE6=Tender Years
TTITLE7=She Thinks I Still Care
TTITLE8=When The Grass Grows Over Me
TTITLE9=Walk Through This World With Me
TTITLE10=White Lightning
TTITLE11=The Window Up Above
TTITLE12=I`ll Share My World With You
TTITLE13=The Race Is On
TTITLE14=A Good Year For The Roses
TTITLE15=Sometimes You Just Can`t Win
TTITLE16=As Long As I Live
TTITLE17=Accidentally On Purpose
TTITLE18=Four O Thirty Three
TTITLE19=You Comb Her Hair
TTITLE20=I Can`t Get There From Here
TTITLE21=If Not For You
TTITLE22=Right Won`t Touch A Hand
TTITLE23=Things Have Gone To Pieces
TTITLE24=If My Heart Had Windows
EXTD=
EXTT0=
EXTT1=
EXTT2=
EXTT3=
EXTT4=
EXTT5=
EXTT6=
EXTT7=
EXTT8=
EXTT9=
EXTT10=
EXTT11=
EXTT12=
EXTT13=
EXTT14=
EXTT15=
EXTT16=
EXTT17=
EXTT18=
EXTT19=
EXTT20=
EXTT21=
EXTT22=
EXTT23=
EXTT24=
PLAYORDER=
